<?xml version="1.0" standalone="no"?>
<!DOCTYPE svg PUBLIC "-//W3C//DTD SVG 20010904//EN"
 "http://www.w3.org/TR/2001/REC-SVG-20010904/DTD/svg10.dtd">
<svg version="1.0" xmlns="http://www.w3.org/2000/svg"
 width="256.000000pt" height="256.000000pt" viewBox="0 0 256.000000 256.000000"
 preserveAspectRatio="xMidYMid meet">
<metadata>
Created by potrace 1.11, written by Peter Selinger 2001-2013
</metadata>
<g transform="translate(0.000000,256.000000) scale(0.100000,-0.100000)"
fill="#000000" stroke="none">
<path d="M1232 2463 c-24 -22 -315 -345 -347 -388 -30 -39 -46 -95 -100 -344
-25 -113 -50 -208 -57 -213 -7 -5 -24 -6 -38 -3 -14 3 -52 8 -85 11 -55 5 -70
1 -190 -46 -72 -29 -141 -56 -154 -61 -49 -19 -12 -18 45 1 32 11 64 18 72 15
7 -2 11 -1 8 4 -3 4 37 25 89 45 89 36 96 37 122 22 15 -8 57 -26 93 -39 96
-36 102 -38 95 -27 -4 6 6 10 22 11 25 0 23 2 -15 16 -32 11 -41 19 -38 31 3
10 21 98 41 197 52 262 73 336 103 365 l25 25 -16 -24 c-15 -22 -15 -27 0 -60
15 -35 19 -186 7 -266 -13 -90 -16 -155 -6 -155 6 0 13 -12 15 -27 2 -18 5
-10 6 19 0 26 5 49 10 53 5 3 12 19 16 35 4 17 10 28 14 26 4 -3 8 3 9 12 16
145 19 154 85 264 34 57 87 154 117 215 30 62 57 109 61 105 4 -4 23 -48 43
-98 37 -95 39 -110 46 -444 0 -42 3 -51 11 -37 5 9 16 17 24 17 8 0 17 5 21
12 5 8 2 9 -10 5 -22 -9 -11 9 14 23 15 8 17 7 13 -13 -3 -12 -13 -28 -21 -34
-14 -12 -14 -13 0 -13 8 0 21 6 28 14 6 8 18 12 26 9 11 -4 14 9 14 68 l0 74
40 23 c38 21 40 25 41 70 0 34 3 43 10 32 38 -58 217 -385 214 -390 -2 -4 -23
-13 -45 -20 -39 -13 -67 -47 -61 -74 1 -4 -3 -14 -10 -22 -6 -7 -8 -17 -5 -23
3 -5 -2 -12 -11 -15 -10 -4 -13 -10 -7 -16 16 -16 87 17 247 113 109 66 151
86 160 79 9 -8 30 0 76 29 38 24 67 36 70 30 4 -5 -15 -99 -41 -207 -27 -108
-47 -199 -45 -201 9 -8 63 19 79 40 23 29 22 16 -5 -110 l-22 -101 -65 -51
c-35 -27 -66 -49 -67 -47 -1 1 13 59 31 128 l33 126 -31 -15 c-38 -18 -179
-183 -181 -212 -2 -23 8 -29 47 -27 22 1 25 -1 17 -15 -12 -24 13 -32 40 -13
42 30 19 -2 -46 -64 l-68 -64 50 32 c28 18 68 49 89 69 l40 36 -27 -36 c-23
-33 -24 -37 -9 -41 27 -7 40 1 35 22 -3 13 13 38 55 83 76 81 78 87 103 207
17 83 20 129 17 279 -3 162 -5 181 -23 201 -18 20 -26 22 -85 16 -38 -3 -112
-23 -175 -46 -119 -43 -137 -46 -153 -27 -5 6 -76 156 -157 332 -146 317 -162
344 -264 454 l-51 55 -38 -35 c-24 -22 -28 -24 -13 -7 28 32 23 47 -7 21z
m-72 -118 c-24 -25 -46 -45 -49 -45 -3 0 15 20 39 45 24 25 46 45 49 45 3 0
-15 -20 -39 -45z m-90 -100 c-24 -25 -46 -45 -49 -45 -3 0 15 20 39 45 24 25
46 45 49 45 3 0 -15 -20 -39 -45z m-50 -58 c0 -1 -24 -25 -52 -52 l-53 -50 50
53 c46 48 55 57 55 49z m862 -1169 c-7 -7 -12 -8 -12 -2 0 14 12 26 19 19 2
-3 -1 -11 -7 -17z"/>
<path d="M1550 1927 c0 -8 -15 -26 -32 -38 -60 -43 -63 -48 -46 -77 19 -31 38
-40 38 -18 0 9 5 16 11 16 5 0 7 -5 4 -10 -10 -16 5 -50 21 -50 8 0 17 -7 20
-15 9 -22 34 6 34 38 0 30 10 40 26 26 8 -6 -4 22 -27 62 -45 83 -49 88 -49
66z"/>
<path d="M471 1472 c-45 -16 -67 -28 -56 -31 23 -4 165 39 165 51 0 14 -32 8
-109 -20z"/>
<path d="M1175 1431 c-66 -57 -135 -135 -135 -152 0 -5 0 -12 1 -15 0 -4 -3
-10 -8 -13 -38 -28 -63 -101 -34 -101 16 0 100 120 112 161 7 22 18 44 26 50
10 9 9 3 -2 -25 -19 -45 -15 -54 24 -48 24 3 33 12 50 54 11 28 18 54 15 59
-3 5 6 21 20 36 28 30 34 53 13 53 -7 0 -44 -27 -82 -59z m45 25 c0 -2 -8 -10
-17 -17 -16 -13 -17 -12 -4 4 13 16 21 21 21 13z"/>
<path d="M541 1459 c-30 -10 -56 -20 -57 -22 -7 -7 19 -83 34 -102 14 -16 14
-17 1 -8 -17 14 -257 59 -265 50 -10 -10 24 -97 84 -218 l58 -117 -76 66 c-84
73 -88 83 -90 212 -1 52 -4 69 -10 54 -12 -31 4 -201 21 -222 8 -9 42 -48 76
-87 76 -89 77 -91 98 -209 17 -94 21 -103 88 -203 47 -68 101 -132 159 -186
49 -45 144 -136 212 -202 181 -176 267 -219 406 -201 66 9 113 30 189 84 50
35 78 48 121 53 76 11 167 53 208 97 72 77 120 152 131 202 6 28 23 73 37 101
14 29 36 99 50 158 26 117 28 131 16 131 -5 0 -19 -51 -32 -112 -15 -76 -34
-133 -56 -176 -19 -34 -34 -76 -34 -92 0 -17 -4 -30 -10 -30 -5 0 -10 15 -10
33 0 28 -19 79 -20 52 0 -6 -25 -40 -55 -75 -47 -55 -95 -133 -95 -155 0 -4 9
-3 20 0 11 4 20 2 20 -4 0 -6 -12 -14 -27 -17 l-27 -7 23 -9 c16 -5 29 -4 39
4 13 11 14 11 8 0 -16 -26 -148 -82 -195 -82 -34 0 -54 -8 -92 -35 -51 -36
-69 -44 -52 -23 6 7 15 29 22 48 l11 34 -31 -29 c-25 -24 -29 -26 -18 -7 12
19 12 24 0 31 -7 5 -10 14 -7 20 4 6 0 11 -10 11 -10 0 -15 3 -11 6 3 4 -1 13
-9 21 -13 13 -20 11 -59 -19 -24 -18 -46 -42 -49 -53 -13 -48 -9 -52 62 -63
l67 -10 -90 5 c-61 4 -96 11 -108 21 -14 12 -20 13 -30 3 -9 -9 -9 -14 3 -21
13 -9 13 -10 0 -10 -8 0 -33 -5 -55 -11 l-39 -11 24 -14 c15 -8 54 -13 98 -13
47 1 78 -3 85 -11 20 -21 -154 -5 -200 19 -51 26 -211 162 -232 197 -22 36
-97 104 -114 104 -24 0 -163 154 -231 255 -61 92 -68 108 -82 189 -8 48 -14
92 -12 97 2 5 44 -33 95 -84 113 -113 118 -119 126 -137 9 -18 -2 126 -10 148
-6 13 -8 13 -14 -4 -4 -10 -8 -32 -9 -49 -1 -28 -1 -29 -15 -11 -8 10 -12 23
-8 29 3 6 2 7 -4 4 -5 -4 -23 8 -39 26 l-29 32 30 -26 c17 -15 36 -24 44 -22
9 4 -6 25 -45 65 -33 33 -48 54 -34 47 13 -8 33 -23 43 -34 10 -11 16 -14 12
-7 -3 6 -2 12 3 12 5 0 9 10 8 23 -1 12 3 26 9 30 7 6 6 10 -2 14 -10 3 -10 8
1 19 8 8 20 14 26 14 36 0 44 55 11 83 -9 8 -74 31 -145 51 -74 21 -134 43
-141 53 -19 26 -77 133 -72 133 2 0 21 -29 42 -65 34 -58 44 -67 89 -84 28
-10 68 -21 90 -25 32 -6 38 -5 33 7 -5 12 0 14 23 7 22 -6 27 -5 24 5 -3 7 2
19 10 28 22 21 20 30 -10 61 -15 14 -22 26 -16 26 6 0 14 -4 17 -10 6 -10 52
-24 120 -36 38 -7 39 -6 25 12 -15 18 -14 18 12 1 34 -21 38 -21 38 -1 0 9 6
14 13 11 50 -21 51 -21 44 -4 -6 17 -5 17 55 21 22 1 34 15 17 20 -8 2 -35 7
-61 11 -39 5 -48 10 -48 26 0 10 5 19 11 19 27 0 -17 31 -86 59 -85 36 -92 36
-164 10z"/>
<path d="M1280 1469 c-2 -29 117 -299 131 -299 20 0 24 7 24 47 1 24 -3 39 -9
36 -5 -4 -7 1 -3 10 3 9 1 19 -5 23 -7 5 -8 2 -3 -6 5 -8 4 -11 -3 -6 -6 3
-10 14 -10 24 1 9 -10 35 -24 57 -28 43 -97 124 -98 114z"/>
<path d="M1815 1331 c3 -5 -12 -20 -34 -32 -38 -21 -39 -23 -25 -45 15 -21 14
-22 -8 -16 -21 5 -22 4 -9 -12 8 -9 24 -16 35 -15 39 3 43 -1 38 -26 -3 -16 2
-33 13 -45 16 -18 18 -18 66 17 27 19 49 38 49 42 0 3 10 11 22 16 39 18 31
33 -41 80 -64 40 -121 60 -106 36z"/>
<path d="M1550 1290 c0 -5 5 -10 10 -10 6 0 10 5 10 10 0 6 -4 10 -10 10 -5 0
-10 -4 -10 -10z"/>
<path d="M2084 1235 c-15 -24 -48 -164 -40 -172 9 -9 76 47 85 70 5 12 12 46
16 74 l7 53 -27 -2 c-15 -2 -33 -12 -41 -23z"/>
<path d="M1378 1073 c-21 -8 -38 -20 -38 -25 0 -6 6 -5 15 2 8 7 24 10 35 7
11 -3 20 -1 20 5 0 6 7 8 14 5 10 -4 13 -1 9 9 -6 17 -8 17 -55 -3z"/>
<path d="M1256 1025 c-3 -8 -2 -15 3 -15 5 0 14 7 21 15 10 12 10 15 -3 15 -8
0 -17 -7 -21 -15z"/>
<path d="M1342 999 c-12 -19 -11 -19 8 -9 11 6 20 15 20 20 0 17 -15 11 -28
-11z"/>
<path d="M657 974 c-16 -16 -6 -35 16 -32 12 2 22 10 22 18 0 16 -26 25 -38
14z"/>
<path d="M738 953 c6 -2 12 -11 12 -18 0 -12 48 -31 57 -22 5 6 -61 47 -73 46
-5 0 -3 -3 4 -6z"/>
<path d="M720 921 c0 -5 7 -16 15 -25 8 -8 15 -22 15 -30 0 -9 5 -16 11 -16 5
0 7 5 4 10 -3 6 1 13 9 16 12 5 9 11 -13 30 -31 26 -41 29 -41 15z"/>
<path d="M1970 763 c-3 -23 -2 -39 3 -34 5 5 7 24 5 42 -3 33 -4 33 -8 -8z"/>
<path d="M1810 730 c12 -16 24 -30 26 -30 3 0 -4 14 -16 30 -12 17 -24 30 -26
30 -3 0 4 -13 16 -30z"/>
<path d="M633 698 c14 -38 150 -217 187 -247 l40 -32 -47 68 c-60 87 -145 194
-168 213 -17 14 -18 13 -12 -2z"/>
<path d="M1620 461 c0 -17 12 -41 20 -41 4 0 7 11 6 25 -1 23 -26 38 -26 16z"/>
<path d="M1567 449 c6 -8 14 -38 17 -66 3 -29 11 -62 18 -72 11 -18 14 -18 40
-5 16 8 33 12 38 9 13 -8 13 1 -2 28 -25 44 -47 68 -85 94 -20 14 -32 19 -26
12z"/>
<path d="M1230 211 c0 -12 0 -24 0 -28 0 -5 6 -8 13 -8 16 0 16 47 0 53 -8 2
-13 -5 -13 -17z"/>
</g>
</svg>
